<svg width="80" height="80" viewBox="0 0 40 40" fill="none" xmlns="http://www.w3.org/2000/svg">
  <path d="M20 2L6 8V20C6 28.8366 12.134 35.7103 20 38C27.866 35.7103 34 28.8366 34 20V8L20 2ZM20 6L10 10V20C10 26.4183 14.4817 31.5699 20 33C25.5183 31.5699 30 26.4183 30 20V10L20 6ZM24 14C21.2386 14 19 16.2386 19 19V21C19 23.7614 21.2386 26 24 26C25.3062 26 26.5039 25.5178 27.4142 24.7071L25.2929 22.5858C24.9023 22.8457 24.4674 23 24 23C22.8954 23 22 22.1046 22 21V19C22 17.8954 22.8954 17 24 17C24.4674 17 24.9023 17.1543 25.2929 17.4142L27.4142 15.2929C26.5039 14.4822 25.3062 14 24 14ZM16 14H12V26H16V21H15V19H16V14Z" fill="currentColor"/>
</svg>
