<svg width="80" height="80" viewBox="0 0 40 40" fill="none" xmlns="http://www.w3.org/2000/svg">
  <!-- Outer Circle -->
  <path d="M20 2C10.0589 2 2 10.0589 2 20C2 29.9411 10.0589 38 20 38C29.9411 38 38 29.9411 38 20C38 10.0589 29.9411 2 20 2ZM20 6C27.732 6 34 12.268 34 20C34 27.732 27.732 34 20 34C12.268 34 6 27.732 6 20C6 12.268 12.268 6 20 6Z" fill="currentColor" fillOpacity="0.2"/>
  <!-- Stylized C -->
  <path d="M28 14C24.134 14 21 17.134 21 21V23C21 26.866 24.134 30 28 30C29.5975 30 31.0587 29.4223 32.2426 28.4853L29.7574 25.5147C29.2852 25.8223 28.6679 26 28 26C26.3431 26 25 24.6569 25 23V21C25 19.3431 26.3431 18 28 18C28.6679 18 29.2852 18.1777 29.7574 18.4853L32.2426 15.5147C31.0587 14.5777 29.5975 14 28 14Z" fill="currentColor"/>
</svg>
